# Blender v2.81 (sub 16) OBJ File: 'pipeline_y.blend'
# www.blender.org
mtllib pipeline_y.mtl
o 立方体
v -1.000000 -1.000000 1.000000
v -1.000000 1.000000 1.000000
v -1.000000 -1.000000 -1.000000
v -1.000000 1.000000 -1.000000
v 1.000000 -1.000000 1.000000
v 1.000000 1.000000 1.000000
v 1.000000 -1.000000 -1.000000
v 1.000000 1.000000 -1.000000
v -1.000000 -1.000000 -1.000000
v -1.000000 1.000000 -1.000000
v 1.000000 -1.000000 -1.000000
v 1.000000 1.000000 -1.000000
v -1.000000 -1.000000 -1.000000
v -1.000000 1.000000 -1.000000
v 1.000000 -1.000000 -1.000000
v 1.000000 1.000000 -1.000000
v -1.000000 -1.000000 -6.234232
v -1.000000 1.000000 -6.234232
v 1.000000 -1.000000 -6.234232
v 1.000000 1.000000 -6.234232
v -1.000000 -1.000000 -8.652536
v -1.000000 1.000000 -8.652536
v 1.000000 -1.000000 -8.652536
v 1.000000 1.000000 -8.652536
v -0.008580 -1.000000 -1.000000
v -0.008580 1.000000 -1.000000
v -0.008580 -1.000000 1.000000
v -0.008580 1.000000 1.000000
v -0.008580 -1.000000 -1.000000
v -0.008580 1.000000 -1.000000
v -0.008580 -1.000000 -1.000000
v -0.008580 1.000000 -1.000000
v -0.008580 -1.000000 -6.234232
v -0.008580 1.000000 -6.234232
v -0.008580 -1.000000 -8.652536
v -0.008580 1.000000 -8.652536
v -0.008580 1.000000 -9.973432
v 1.000000 1.000000 -9.973432
v 1.000000 -1.000000 -9.973432
v -0.008580 -1.000000 -9.973432
v -0.008580 1.000000 -9.973432
v 1.000000 1.000000 -9.973432
v 1.000000 -1.000000 -9.973432
v -0.008580 -1.000000 -9.973432
v 0.030578 1.000000 -11.649271
v 0.960842 1.000000 -11.259600
v 0.960842 -1.000000 -11.259600
v 0.030578 -1.000000 -11.649271
v 0.594189 1.000000 -12.969619
v 1.430376 1.000000 -12.405683
v 1.430376 -1.000000 -12.405683
v 0.594189 -1.000000 -12.969619
v 1.434678 1.000000 -14.197325
v 2.139897 1.000000 -13.476284
v 2.139897 -1.000000 -13.476284
v 1.434678 -1.000000 -14.197325
v 2.926308 1.000000 -15.618195
v 3.359949 1.000000 -14.707596
v 3.359949 -1.000000 -14.707596
v 2.926308 -1.000000 -15.618195
v 4.472612 1.000000 -16.341518
v 4.700444 1.000000 -15.359009
v 4.700444 -1.000000 -15.359009
v 4.472612 -1.000000 -16.341518
v 4.472612 1.000000 -16.341518
v 4.700444 1.000000 -15.359009
v 4.700444 -1.000000 -15.359009
v 4.472612 -1.000000 -16.341518
v 6.588966 1.000000 -16.824282
v 6.641294 1.000000 -15.817060
v 6.641294 -1.000000 -15.817060
v 6.588966 -1.000000 -16.824282
v 8.251819 1.000000 -16.910406
v 8.271539 1.000000 -15.902020
v 8.271539 -1.000000 -15.902020
v 8.251819 -1.000000 -16.910406
v -1.200136 1.000000 -9.933404
v -1.200136 -1.000000 -9.933404
v -0.208716 -1.000000 -9.933404
v -0.208716 1.000000 -9.933404
v -1.501820 1.000000 -11.400212
v -1.501820 -1.000000 -11.400212
v -0.547465 -1.000000 -11.668765
v -0.547465 1.000000 -11.668765
v -1.972685 1.000000 -13.338621
v -1.972685 -1.000000 -13.338621
v -1.295796 -1.000000 -14.063006
v -1.295796 1.000000 -14.063006
v -2.995443 1.000000 -14.374882
v -2.995443 -1.000000 -14.374882
v -2.741306 -1.000000 -15.333175
v -2.741306 1.000000 -15.333175
v -4.826248 1.000000 -14.860408
v -4.826248 -1.000000 -14.860408
v -4.572110 -1.000000 -15.818701
v -4.572110 1.000000 -15.818701
v -6.589432 1.000000 -15.328565
v -6.589432 -1.000000 -15.328565
v -6.380454 -1.000000 -16.297709
v -6.380454 1.000000 -16.297709
v -8.192401 1.000000 -15.689676
v -8.192401 -1.000000 -15.689676
v -8.227286 -1.000000 -16.680481
v -8.227286 1.000000 -16.680481
v -1.000000 -0.308705 1.000000
v -1.000000 0.357962 1.000000
v -1.000000 0.357962 -1.000000
v -1.000000 -0.308705 -1.000000
v 1.000000 0.357962 -1.000000
v 1.000000 -0.308705 -1.000000
v 1.000000 0.357962 1.000000
v 1.000000 -0.308705 1.000000
v -1.000000 0.357962 -1.000000
v -1.000000 -0.308705 -1.000000
v 1.000000 0.357962 -1.000000
v 1.000000 -0.308705 -1.000000
v -1.000000 0.357962 -1.000000
v -1.000000 -0.308705 -1.000000
v 1.000000 0.357962 -1.000000
v 1.000000 -0.308705 -1.000000
v -1.000000 0.357962 -6.234232
v -1.000000 -0.308705 -6.234232
v 1.000000 0.357962 -6.234232
v 1.000000 -0.308705 -6.234232
v -1.000000 0.357962 -8.652536
v -1.000000 -0.308705 -8.652536
v 1.000000 0.357962 -8.652536
v 1.000000 -0.308705 -8.652536
v -0.008580 0.357962 -8.652536
v -0.008580 -0.308705 -8.652536
v 1.000000 0.357962 -9.973432
v 1.000000 -0.308705 -9.973432
v -0.008580 0.357962 -9.973432
v -0.008580 -0.308705 -9.973432
v 1.000000 0.357962 -9.973432
v 1.000000 -0.308705 -9.973432
v -0.008580 0.357962 -9.973432
v -0.008580 -0.308705 -9.973432
v 0.960842 0.357962 -11.259600
v 0.960842 -0.308705 -11.259600
v 0.030578 0.357962 -11.649271
v 0.030578 -0.308705 -11.649271
v 1.430376 0.357962 -12.405683
v 1.430376 -0.308705 -12.405683
v 0.594189 0.357962 -12.969619
v 0.594189 -0.308705 -12.969619
v 2.139897 0.357962 -13.476284
v 2.139897 -0.308705 -13.476284
v 1.434678 0.357962 -14.197325
v 1.434678 -0.308705 -14.197325
v 3.359949 0.357962 -14.707596
v 3.359949 -0.308705 -14.707596
v 2.926308 0.357962 -15.618195
v 2.926308 -0.308705 -15.618195
v 4.700444 0.357962 -15.359009
v 4.700444 -0.308705 -15.359009
v 4.472612 0.357962 -16.341518
v 4.472612 -0.308705 -16.341518
v 4.700444 0.357962 -15.359009
v 4.700444 -0.308705 -15.359009
v 4.472612 0.357962 -16.341518
v 4.472612 -0.308705 -16.341518
v 6.641294 0.357962 -15.817060
v 6.641294 -0.308705 -15.817060
v 6.588966 0.357962 -16.824282
v 6.588966 -0.308705 -16.824282
v 8.271539 0.357962 -15.902020
v 8.271539 -0.308705 -15.902020
v 8.251819 0.357962 -16.910406
v 8.251819 -0.308705 -16.910406
v -1.200136 0.357962 -9.933404
v -1.200136 -0.308705 -9.933404
v -0.208716 0.357962 -9.933404
v -0.208716 -0.308705 -9.933404
v -1.501820 0.357962 -11.400212
v -1.501820 -0.308705 -11.400212
v -0.547465 0.357962 -11.668765
v -0.547465 -0.308705 -11.668765
v -1.972685 0.357962 -13.338621
v -1.972685 -0.308705 -13.338621
v -1.295796 0.357962 -14.063006
v -1.295796 -0.308705 -14.063006
v -2.995443 0.357962 -14.374882
v -2.995443 -0.308705 -14.374882
v -2.741306 0.357962 -15.333175
v -2.741306 -0.308705 -15.333175
v -4.826248 0.357962 -14.860408
v -4.826248 -0.308705 -14.860408
v -4.572110 0.357962 -15.818701
v -4.572110 -0.308705 -15.818701
v -6.589432 0.357962 -15.328565
v -6.589432 -0.308705 -15.328565
v -6.380454 0.357962 -16.297709
v -6.380454 -0.308705 -16.297709
v -8.192401 0.357962 -15.689676
v -8.192401 -0.308705 -15.689676
v -8.227286 0.357962 -16.680481
v -8.227286 -0.308705 -16.680481
vt 0.544745 0.000000
vt 0.544745 0.250000
vt 0.625000 0.250000
vt 0.625000 0.000000
vt 0.751073 0.500000
vt 0.751073 0.500000
vt 0.625000 0.500000
vt 0.625000 0.500000
vt 0.544745 0.500000
vt 0.544745 0.750000
vt 0.625000 0.750000
vt 0.544745 0.250000
vt 0.625000 0.250000
vt 0.248927 0.500000
vt 0.248927 0.750000
vt 0.375000 0.750000
vt 0.375000 0.500000
vt 0.751073 0.750000
vt 0.875000 0.750000
vt 0.875000 0.500000
vt 0.461412 0.500000
vt 0.461412 0.500000
vt 0.375000 0.500000
vt 0.248927 0.500000
vt 0.125000 0.500000
vt 0.125000 0.500000
vt 0.248927 0.500000
vt 0.125000 0.500000
vt 0.751073 0.500000
vt 0.625000 0.500000
vt 0.544745 0.250000
vt 0.625000 0.250000
vt 0.461412 0.500000
vt 0.375000 0.500000
vt 0.751073 0.500000
vt 0.625000 0.500000
vt 0.544745 0.250000
vt 0.625000 0.250000
vt 0.461412 0.500000
vt 0.375000 0.500000
vt 0.248927 0.500000
vt 0.125000 0.500000
vt 0.461412 0.500000
vt 0.375000 0.500000
vt 0.248927 0.500000
vt 0.125000 0.500000
vt 0.751073 0.500000
vt 0.625000 0.500000
vt 0.544745 0.250000
vt 0.625000 0.250000
vt 0.751073 0.500000
vt 0.625000 0.500000
vt 0.875000 0.500000
vt 0.875000 0.500000
vt 0.751073 0.500000
vt 0.875000 0.500000
vt 0.875000 0.500000
vt 0.875000 0.500000
vt 0.125000 0.750000
vt 0.461412 0.500000
vt 0.461412 0.500000
vt 0.375000 0.500000
vt 0.375000 0.500000
vt 0.589874 0.500000
vt 0.589874 0.500000
vt 0.248927 0.500000
vt 0.375000 0.500000
vt 0.248927 0.500000
vt 0.248927 0.500000
vt 0.751073 0.500000
vt 0.625000 0.500000
vt 0.589874 0.500000
vt 0.589874 0.500000
vt 0.589874 0.500000
vt 0.751073 0.500000
vt 0.751073 0.500000
vt 0.625000 0.500000
vt 0.461412 0.500000
vt 0.375000 0.500000
vt 0.375000 0.500000
vt 0.248927 0.500000
vt 0.248927 0.500000
vt 0.461412 0.500000
vt 0.625000 0.500000
vt 0.375000 0.500000
vt 0.248927 0.500000
vt 0.751073 0.500000
vt 0.625000 0.500000
vt 0.589874 0.500000
vt 0.461412 0.500000
vt 0.589874 0.500000
vt 0.589874 0.500000
vt 0.751073 0.500000
vt 0.751073 0.500000
vt 0.625000 0.500000
vt 0.461412 0.500000
vt 0.375000 0.500000
vt 0.375000 0.500000
vt 0.248927 0.500000
vt 0.248927 0.500000
vt 0.461412 0.500000
vt 0.625000 0.500000
vt 0.751073 0.500000
vt 0.751073 0.500000
vt 0.625000 0.500000
vt 0.625000 0.500000
vt 0.589874 0.500000
vt 0.461412 0.500000
vt 0.589874 0.500000
vt 0.589874 0.500000
vt 0.751073 0.500000
vt 0.461412 0.500000
vt 0.375000 0.500000
vt 0.248927 0.500000
vt 0.461412 0.500000
vt 0.375000 0.500000
vt 0.248927 0.500000
vt 0.625000 0.500000
vt 0.422493 0.500000
vt 0.422493 0.500000
vt 0.248927 0.500000
vt 0.248927 0.500000
vt 0.544745 0.250000
vt 0.625000 0.250000
vt 0.422493 0.500000
vt 0.125000 0.500000
vt 0.248927 0.500000
vt 0.125000 0.500000
vt 0.125000 0.500000
vt 0.875000 0.500000
vt 0.751073 0.500000
vt 0.544745 0.250000
vt 0.625000 0.250000
vt 0.875000 0.500000
vt 0.875000 0.500000
vt 0.751073 0.500000
vt 0.751073 0.500000
vt 0.544745 0.250000
vt 0.625000 0.250000
vt 0.422493 0.500000
vt 0.422493 0.500000
vt 0.422493 0.500000
vt 0.248927 0.500000
vt 0.248927 0.500000
vt 0.544745 0.250000
vt 0.625000 0.250000
vt 0.125000 0.500000
vt 0.875000 0.500000
vt 0.875000 0.500000
vt 0.751073 0.500000
vt 0.751073 0.500000
vt 0.125000 0.500000
vt 0.544745 0.250000
vt 0.625000 0.250000
vt 0.875000 0.500000
vt 0.751073 0.500000
vt 0.544745 0.250000
vt 0.625000 0.250000
vt 0.422493 0.500000
vt 0.248927 0.500000
vt 0.125000 0.500000
vt 0.544745 0.250000
vt 0.625000 0.250000
vt 0.422493 0.500000
vt 0.248927 0.500000
vt 0.125000 0.500000
vt 0.589874 0.500000
vt 0.589874 0.500000
vt 0.375000 0.250000
vt 0.375000 0.250000
vt 0.461412 0.250000
vt 0.461412 0.250000
vt 0.589874 0.500000
vt 0.375000 0.250000
vt 0.461412 0.250000
vt 0.375000 0.250000
vt 0.461412 0.250000
vt 0.589874 0.500000
vt 0.589874 0.500000
vt 0.375000 0.250000
vt 0.461412 0.250000
vt 0.589874 0.500000
vt 0.375000 0.250000
vt 0.461412 0.250000
vt 0.375000 0.250000
vt 0.461412 0.250000
vt 0.589874 0.500000
vt 0.375000 0.250000
vt 0.461412 0.250000
vt 0.544745 0.500000
vt 0.544745 0.500000
vt 0.544745 0.500000
vt 0.422493 0.500000
vt 0.422493 0.500000
vt 0.422493 0.500000
vt 0.544745 0.500000
vt 0.422493 0.500000
vt 0.544745 0.500000
vt 0.544745 0.500000
vt 0.422493 0.500000
vt 0.422493 0.500000
vt 0.544745 0.500000
vt 0.422493 0.500000
vt 0.544745 0.500000
vt 0.544745 0.500000
vt 0.422493 0.500000
vt 0.422493 0.500000
vt 0.422493 0.500000
vt 0.544745 0.500000
vt 0.544745 0.500000
vt 0.375000 0.250000
vt 0.461412 0.250000
vt 0.544745 0.500000
vt 0.544745 0.500000
vt 0.375000 0.250000
vt 0.461412 0.250000
vt 0.544745 0.500000
vt 0.375000 0.250000
vt 0.461412 0.250000
vt 0.375000 0.250000
vt 0.461412 0.250000
vt 0.461412 0.750000
vt 0.375000 0.000000
vt 0.461412 0.000000
vn 1.0000 0.0000 0.0000
vn 0.0000 0.0000 1.0000
vn -1.0000 0.0000 0.0000
vn 0.0000 1.0000 0.0000
vn 0.0000 -1.0000 0.0000
vn 0.9197 0.0000 0.3926
vn 0.9997 0.0000 0.0234
vn -0.9995 0.0000 0.0304
vn -0.9254 0.0000 -0.3791
vn 0.8252 0.0000 0.5649
vn -0.8336 0.0000 -0.5524
vn 0.4237 0.0000 0.9058
vn 0.6897 0.0000 0.7241
vn -0.7103 0.0000 -0.7039
vn -0.4371 0.0000 -0.8994
vn 0.0517 0.0000 0.9987
vn 0.2224 0.0000 0.9750
vn -0.2297 0.0000 -0.9733
vn -0.0520 0.0000 -0.9986
vn -0.9815 0.0000 0.1916
vn 0.9880 0.0000 -0.1544
vn -0.9880 0.0000 0.1544
vn 0.9795 0.0000 -0.2015
vn 0.9717 0.0000 -0.2360
vn -0.9545 0.0000 0.2983
vn -0.2563 0.0000 0.9666
vn 0.7117 0.0000 -0.7025
vn -0.6601 0.0000 0.7512
vn 0.2563 0.0000 -0.9666
vn 0.2566 0.0000 -0.9665
vn -0.2561 0.0000 0.9667
vn 0.2198 0.0000 -0.9756
vn -0.2029 0.0000 0.9792
usemtl None
s off
f 106/1/1 107/2/1 4/3/1 2/4/1
f 26/5/2 30/6/2 12/7/2 8/8/2
f 109/9/3 111/10/3 6/11/3 8/8/3
f 107/2/2 113/12/2 10/13/2 4/3/2
f 25/14/4 27/15/4 5/16/4 7/17/4
f 26/5/5 28/18/5 2/19/5 4/20/5
f 110/21/2 116/22/2 11/23/2 7/17/2
f 25/14/2 29/24/2 9/25/2 3/26/2
f 29/24/2 31/27/2 13/28/2 9/25/2
f 30/6/2 32/29/2 16/30/2 12/7/2
f 113/12/2 117/31/2 14/32/2 10/13/2
f 116/22/2 120/33/2 15/34/2 11/23/2
f 32/29/5 34/35/5 20/36/5 16/30/5
f 117/31/1 121/37/1 18/38/1 14/32/1
f 120/33/3 124/39/3 19/40/3 15/34/3
f 31/27/4 33/41/4 17/42/4 13/28/4
f 124/39/3 128/43/3 23/44/3 19/40/3
f 33/41/4 35/45/4 21/46/4 17/42/4
f 34/35/5 36/47/5 24/48/5 20/36/5
f 121/37/1 125/49/1 22/50/1 18/38/1
f 36/47/5 37/51/5 38/52/5 24/48/5
f 22/53/5 77/54/5 80/55/5 36/47/5
f 18/56/5 22/53/5 36/47/5 34/35/5
f 19/40/4 23/44/4 35/45/4 33/41/4
f 15/34/4 19/40/4 33/41/4 31/27/4
f 14/57/5 18/56/5 34/35/5 32/29/5
f 10/58/2 14/57/2 32/29/2 30/6/2
f 11/23/2 15/34/2 31/27/2 29/24/2
f 7/17/2 11/23/2 29/24/2 25/14/2
f 8/8/5 6/11/5 28/18/5 26/5/5
f 3/26/4 1/59/4 27/15/4 25/14/4
f 4/20/2 10/58/2 30/6/2 26/5/2
f 132/60/2 136/61/2 43/62/2 39/63/2
f 129/64/1 133/65/1 37/51/1 36/47/1
f 23/44/4 39/63/4 40/66/4 35/45/4
f 128/43/3 132/60/3 39/63/3 23/44/3
f 43/62/4 47/67/4 48/68/4 44/69/4
f 39/63/2 43/62/2 44/69/2 40/66/2
f 37/51/2 41/70/2 42/71/2 38/52/2
f 133/65/2 137/72/2 41/70/2 37/51/2
f 141/73/6 145/74/6 49/75/6 45/76/6
f 41/70/5 45/76/5 46/77/5 42/71/5
f 137/72/7 141/73/7 45/76/7 41/70/7
f 136/61/8 140/78/8 47/67/8 43/62/8
f 51/79/4 55/80/4 56/81/4 52/82/4
f 140/78/9 144/83/9 51/79/9 47/67/9
f 47/67/4 51/79/4 52/82/4 48/68/4
f 45/76/5 49/75/5 50/84/5 46/77/5
f 55/80/4 59/85/4 60/86/4 56/81/4
f 49/75/5 53/87/5 54/88/5 50/84/5
f 145/74/10 149/89/10 53/87/10 49/75/10
f 144/83/11 148/90/11 55/80/11 51/79/11
f 153/91/12 157/92/12 61/93/12 57/94/12
f 53/87/5 57/94/5 58/95/5 54/88/5
f 149/89/13 153/91/13 57/94/13 53/87/13
f 148/90/14 152/96/14 59/85/14 55/80/14
f 63/97/2 67/98/2 68/99/2 64/100/2
f 152/96/15 156/101/15 63/97/15 59/85/15
f 59/85/4 63/97/4 64/100/4 60/86/4
f 57/94/5 61/93/5 62/102/5 58/95/5
f 65/103/5 69/104/5 70/105/5 66/106/5
f 61/93/2 65/103/2 66/106/2 62/102/2
f 157/92/2 161/107/2 65/103/2 61/93/2
f 156/101/2 160/108/2 67/98/2 63/97/2
f 165/109/16 169/110/16 73/111/16 69/104/16
f 161/107/17 165/109/17 69/104/17 65/103/17
f 160/108/18 164/112/18 71/113/18 67/98/18
f 67/98/4 71/113/4 72/114/4 68/99/4
f 164/112/19 168/115/19 75/116/19 71/113/19
f 71/113/4 75/116/4 76/117/4 72/114/4
f 69/104/5 73/111/5 74/118/5 70/105/5
f 174/119/20 178/120/20 83/121/20 79/122/20
f 125/49/21 171/123/21 77/124/21 22/50/21
f 130/125/22 174/119/22 79/122/22 35/45/22
f 35/45/4 79/122/4 78/126/4 21/46/4
f 83/121/4 87/127/4 86/128/4 82/129/4
f 79/122/4 83/121/4 82/129/4 78/126/4
f 77/54/5 81/130/5 84/131/5 80/55/5
f 171/123/23 175/132/23 81/133/23 77/124/23
f 85/134/5 89/135/5 92/136/5 88/137/5
f 81/130/5 85/134/5 88/137/5 84/131/5
f 175/132/24 179/138/24 85/139/24 81/133/24
f 178/120/25 182/140/25 87/127/25 83/121/25
f 186/141/26 190/142/26 95/143/26 91/144/26
f 179/138/27 183/145/27 89/146/27 85/139/27
f 182/140/28 186/141/28 91/144/28 87/127/28
f 87/127/4 91/144/4 90/147/4 86/128/4
f 93/148/5 97/149/5 100/150/5 96/151/5
f 91/144/4 95/143/4 94/152/4 90/147/4
f 89/135/5 93/148/5 96/151/5 92/136/5
f 183/145/29 187/153/29 93/154/29 89/146/29
f 97/149/5 101/155/5 104/156/5 100/150/5
f 187/153/30 191/157/30 97/158/30 93/154/30
f 190/142/31 194/159/31 99/160/31 95/143/31
f 95/143/4 99/160/4 98/161/4 94/152/4
f 191/157/32 195/162/32 101/163/32 97/158/32
f 194/159/33 198/164/33 103/165/33 99/160/33
f 99/160/4 103/165/4 102/166/4 98/161/4
f 100/150/33 104/156/33 197/167/33 193/168/33
f 193/168/33 197/167/33 198/164/33 194/159/33
f 98/169/32 102/170/32 196/171/32 192/172/32
f 192/172/32 196/171/32 195/162/32 191/157/32
f 96/151/31 100/150/31 193/168/31 189/173/31
f 189/173/31 193/168/31 194/159/31 190/142/31
f 94/174/30 98/169/30 192/172/30 188/175/30
f 188/175/30 192/172/30 191/157/30 187/153/30
f 90/176/29 94/174/29 188/175/29 184/177/29
f 184/177/29 188/175/29 187/153/29 183/145/29
f 88/137/28 92/136/28 185/178/28 181/179/28
f 181/179/28 185/178/28 186/141/28 182/140/28
f 86/180/27 90/176/27 184/177/27 180/181/27
f 180/181/27 184/177/27 183/145/27 179/138/27
f 92/136/26 96/151/26 189/173/26 185/178/26
f 185/178/26 189/173/26 190/142/26 186/141/26
f 84/131/25 88/137/25 181/179/25 177/182/25
f 177/182/25 181/179/25 182/140/25 178/120/25
f 82/183/24 86/180/24 180/181/24 176/184/24
f 176/184/24 180/181/24 179/138/24 175/132/24
f 78/185/23 82/183/23 176/184/23 172/186/23
f 172/186/23 176/184/23 175/132/23 171/123/23
f 36/47/22 80/55/22 173/187/22 129/64/22
f 129/64/22 173/187/22 174/119/22 130/125/22
f 21/188/21 78/185/21 172/186/21 126/189/21
f 126/189/21 172/186/21 171/123/21 125/49/21
f 80/55/20 84/131/20 177/182/20 173/187/20
f 173/187/20 177/182/20 178/120/20 174/119/20
f 70/105/19 74/118/19 167/190/19 163/191/19
f 163/191/19 167/190/19 168/115/19 164/112/19
f 66/106/18 70/105/18 163/191/18 159/192/18
f 159/192/18 163/191/18 164/112/18 160/108/18
f 68/99/17 72/114/17 166/193/17 162/194/17
f 162/194/17 166/193/17 165/109/17 161/107/17
f 72/114/16 76/117/16 170/195/16 166/193/16
f 166/193/16 170/195/16 169/110/16 165/109/16
f 62/102/2 66/106/2 159/192/2 155/196/2
f 155/196/2 159/192/2 160/108/2 156/101/2
f 64/100/2 68/99/2 162/194/2 158/197/2
f 158/197/2 162/194/2 161/107/2 157/92/2
f 58/95/15 62/102/15 155/196/15 151/198/15
f 151/198/15 155/196/15 156/101/15 152/96/15
f 54/88/14 58/95/14 151/198/14 147/199/14
f 147/199/14 151/198/14 152/96/14 148/90/14
f 56/81/13 60/86/13 154/200/13 150/201/13
f 150/201/13 154/200/13 153/91/13 149/89/13
f 60/86/12 64/100/12 158/197/12 154/200/12
f 154/200/12 158/197/12 157/92/12 153/91/12
f 50/84/11 54/88/11 147/199/11 143/202/11
f 143/202/11 147/199/11 148/90/11 144/83/11
f 52/82/10 56/81/10 150/201/10 146/203/10
f 146/203/10 150/201/10 149/89/10 145/74/10
f 46/77/9 50/84/9 143/202/9 139/204/9
f 139/204/9 143/202/9 144/83/9 140/78/9
f 42/71/8 46/77/8 139/204/8 135/205/8
f 135/205/8 139/204/8 140/78/8 136/61/8
f 44/69/7 48/68/7 142/206/7 138/207/7
f 138/207/7 142/206/7 141/73/7 137/72/7
f 48/68/6 52/82/6 146/203/6 142/206/6
f 142/206/6 146/203/6 145/74/6 141/73/6
f 40/66/2 44/69/2 138/207/2 134/208/2
f 134/208/2 138/207/2 137/72/2 133/65/2
f 24/48/3 38/52/3 131/209/3 127/210/3
f 127/210/3 131/209/3 132/60/3 128/43/3
f 35/45/1 40/66/1 134/208/1 130/125/1
f 130/125/1 134/208/1 133/65/1 129/64/1
f 38/52/2 42/71/2 135/205/2 131/209/2
f 131/209/2 135/205/2 136/61/2 132/60/2
f 17/211/1 21/188/1 126/189/1 122/212/1
f 122/212/1 126/189/1 125/49/1 121/37/1
f 20/36/3 24/48/3 127/210/3 123/213/3
f 123/213/3 127/210/3 128/43/3 124/39/3
f 16/30/3 20/36/3 123/213/3 119/214/3
f 119/214/3 123/213/3 124/39/3 120/33/3
f 13/215/1 17/211/1 122/212/1 118/216/1
f 118/216/1 122/212/1 121/37/1 117/31/1
f 12/7/2 16/30/2 119/214/2 115/217/2
f 115/217/2 119/214/2 120/33/2 116/22/2
f 9/218/2 13/215/2 118/216/2 114/219/2
f 114/219/2 118/216/2 117/31/2 113/12/2
f 8/8/2 12/7/2 115/217/2 109/9/2
f 109/9/2 115/217/2 116/22/2 110/21/2
f 3/220/2 9/218/2 114/219/2 108/221/2
f 108/221/2 114/219/2 113/12/2 107/2/2
f 7/17/3 5/16/3 112/222/3 110/21/3
f 110/21/3 112/222/3 111/10/3 109/9/3
f 1/223/1 3/220/1 108/221/1 105/224/1
f 105/224/1 108/221/1 107/2/1 106/1/1
l 196 198
l 195 197
l 170 168
l 169 167
